<svg width="24" height="22" viewBox="0 0 24 22" fill="none" xmlns="http://www.w3.org/2000/svg">
<path d="M1.62714 16.8676V20.7579C1.62714 20.9946 1.81944 21.1918 2.06105 21.1918H5.0688C5.30548 21.1918 5.50271 20.9995 5.50271 20.7579V13.9141L3.31839 16.0984C2.8549 16.5569 2.26321 16.8232 1.62714 16.8676Z" fill="white"/>
<path d="M7.00166 13.8647V20.7579C7.00166 20.9946 7.19395 21.1918 7.43556 21.1918H10.4433C10.68 21.1918 10.8772 20.9995 10.8772 20.7579V16.6999C10.1918 16.6851 9.55085 16.4139 9.06764 15.9307L7.00166 13.8647Z" fill="white"/>
<path d="M12.3762 16.2707V20.7577C12.3762 20.9944 12.5685 21.1916 12.8101 21.1916H15.8178C16.0545 21.1916 16.2517 20.9993 16.2517 20.7577V12.479L12.8051 15.9256C12.672 16.0587 12.529 16.1721 12.3762 16.2707Z" fill="white"/>
<path d="M21.3353 7.39062L17.7507 10.9753V20.7579C17.7507 20.9945 17.943 21.1918 18.1846 21.1918H21.1923C21.429 21.1918 21.6262 20.9995 21.6262 20.7579V7.66182C21.5276 7.57799 21.4537 7.50403 21.3994 7.45472L21.3353 7.39062Z" fill="white"/>
<path d="M23.7958 1.03985C23.6528 0.886997 23.4358 0.808105 23.1597 0.808105C23.135 0.808105 23.1055 0.808105 23.0808 0.808105C21.6805 0.872205 20.2851 0.941236 18.8847 1.00534C18.6974 1.0152 18.441 1.02506 18.2388 1.22722C18.1747 1.29132 18.1254 1.36528 18.086 1.45403C17.8789 1.90273 18.1698 2.19364 18.3078 2.33171L18.6579 2.68672C18.8995 2.93326 19.1461 3.17979 19.3926 3.4214L10.9315 11.8875L7.12986 8.08588C6.90304 7.85907 6.59733 7.73087 6.27191 7.73087C5.94648 7.73087 5.6457 7.85907 5.41889 8.08588L0.355014 13.1448C-0.118338 13.6182 -0.118338 14.3824 0.355014 14.8558L0.581828 15.0826C0.808642 15.3094 1.11435 15.4376 1.43978 15.4376C1.76521 15.4376 2.06598 15.3094 2.2928 15.0826L6.27191 11.1035L10.0735 14.9051C10.3003 15.1319 10.606 15.2601 10.9315 15.2601C11.2569 15.2601 11.5577 15.1319 11.7894 14.9051L21.3353 5.35918L22.4152 6.43408C22.5434 6.56228 22.7209 6.73979 22.9921 6.73979C23.1055 6.73979 23.2189 6.71021 23.3372 6.64611C23.4161 6.60173 23.4851 6.55242 23.5443 6.49325C23.7563 6.28123 23.7958 6.01004 23.8056 5.79802C23.8451 4.89076 23.8895 3.9835 23.9338 3.07132L23.9979 1.7055C24.0127 1.41952 23.9486 1.19763 23.7958 1.03985Z" fill="white"/>
</svg>
