<svg width="25" height="24" viewBox="0 0 25 24" fill="none" xmlns="http://www.w3.org/2000/svg">
<path d="M12.7866 16.5726C10.4646 16.4784 8.50474 14.8262 8.02842 12.5438C7.95896 12.2213 7.92423 11.8889 7.91927 11.5565L7.90935 10.7874L0.69022 9.0459L0.571141 10.1672C0.432217 11.4721 0.496717 12.7869 0.764644 14.072C2.0497 20.1996 7.72577 24.4517 13.9625 23.9605L15.0838 23.8712L13.5606 16.6024L12.7866 16.5726ZM2.4764 11.5118L3.55802 11.7748L2.55578 12.777C2.50616 12.3553 2.4764 11.9335 2.4764 11.5118ZM2.76913 13.9628L4.68927 12.0477L5.79571 12.3156L3.08667 15.0246C2.96263 14.6773 2.85844 14.325 2.76913 13.9628ZM3.9748 16.9051C3.80114 16.6173 3.64237 16.3196 3.49848 16.012L6.18767 13.3228C6.28194 13.6751 6.40102 14.0125 6.54491 14.3399L3.9748 16.9051ZM4.53546 17.7436L7.02618 15.2529C7.19984 15.5307 7.39334 15.7986 7.60669 16.0467L5.1507 18.4977C4.93735 18.2596 4.72896 18.0065 4.53546 17.7436ZM5.84532 19.2073L8.29139 16.7612C8.53451 16.9795 8.79251 17.178 9.0654 17.3615L6.58956 19.8374C6.33156 19.6389 6.08348 19.4256 5.84532 19.2073ZM7.41815 20.408L9.95849 17.8676C10.276 18.0214 10.6085 18.1455 10.9508 18.2497L8.30131 20.8992C7.99369 20.7503 7.70096 20.5866 7.41815 20.408ZM9.26386 21.3308L11.958 18.6367L12.1962 19.7729L10.3008 21.6682C9.95353 21.5739 9.60621 21.4598 9.26386 21.3308ZM11.4668 21.9064L12.4442 20.9289L12.6725 22.0155C12.2656 22.0006 11.8637 21.9609 11.4668 21.9064Z" fill="white"/>
<path d="M24.2529 9.14038C23.0521 3.41469 17.7829 -0.410702 12.1019 0.0358423L13.2381 5.44399C15.9471 5.55314 18.3436 7.4832 18.9241 10.2567C19.5046 13.0303 18.0905 15.7592 15.6494 16.9499L16.7856 22.363C22.169 20.4876 25.4536 14.8661 24.2529 9.14038Z" fill="white"/>
<path d="M10.3306 6.05414L9.1944 0.645996C5.92967 1.7822 3.43895 4.30269 2.25313 7.38385L7.62654 8.67883C8.21697 7.5575 9.15471 6.62968 10.3306 6.05414Z" fill="white"/>
</svg>
