<svg width="24" height="24" viewBox="0 0 24 24" fill="none" xmlns="http://www.w3.org/2000/svg">
<path d="M21.935 12.1211L21.6835 12L21.935 11.8789C23.4441 11.0316 23.9471 9.21579 23.0668 7.76316L21.3062 4.85789C20.929 4.13157 20.1743 3.64737 19.4198 3.40527C18.6653 3.16316 17.785 3.28421 17.0303 3.64737L16.7788 3.76843V3.52632C16.7788 1.83157 15.3955 0.5 13.6349 0.5H10.2394C8.47874 0.5 7.09539 1.83157 7.09539 3.52632V3.76843H6.96963C6.21507 3.28421 5.46052 3.16316 4.58019 3.40527C3.69988 3.64737 3.07108 4.13157 2.6938 4.85789L0.933171 7.76316C0.0528571 9.21579 0.55589 11.0316 2.065 11.8789L2.31653 12L2.065 12.1211C0.55589 12.9684 0.0528571 14.7843 0.933171 16.2368L2.6938 19.1421C3.07108 19.8684 3.82564 20.3527 4.58019 20.5948C5.46052 20.8368 6.21507 20.7157 6.96963 20.2316H7.09539V20.4737C7.09539 22.1684 8.47874 23.5 10.2394 23.5H13.6349C15.3955 23.5 16.7788 22.1684 16.7788 20.4737V20.2316L17.0303 20.3527C17.785 20.7157 18.6653 20.8368 19.4198 20.5948C20.3001 20.3527 20.929 19.8684 21.3062 19.1421L23.0668 16.2368C23.9471 14.7843 23.4441 12.9684 21.935 12.1211ZM12 16.6C9.35906 16.6 7.22115 14.5421 7.22115 12C7.22115 9.45789 9.35906 7.4 12 7.4C14.641 7.4 16.7788 9.45789 16.7788 12C16.7788 14.5421 14.641 16.6 12 16.6Z" fill="white"/>
</svg>
